# xmcd CD database file
#
# Track frame offsets:
#	150
#	28012
#	47198
#	72179
#	97710
#	126896
#	148668
#	189346
#
# Disc length: 2726 seconds
#
# Revision: 0
# Processed by: cddbd v1.5.2PL0 Copyright (c) Steve Scherf et al.
# Submitted via: CDex 1.51
#
DISCID=690aa408
DTITLE=RMS - Live At The Venue 1982
DYEAR=2000
DGENRE=Jazz
TTITLE0=Broadway Rundown
TTITLE1=Tootin' Beck
TTITLE2=After All These Years
TTITLE3=Centennial Park
TTITLE4=Hoover The Duvet
TTITLE5=First Love
TTITLE6=Juna The Last
TTITLE7=Memories of Crete
EXTD=YEAR: 2000
EXTT0=
EXTT1=
EXTT2=
EXTT3=
EXTT4=
EXTT5=
EXTT6=
EXTT7=
PLAYORDER=
